<?xml version="1.0" standalone="no"?>
<!DOCTYPE svg PUBLIC "-//W3C//DTD SVG 20010904//EN"
 "http://www.w3.org/TR/2001/REC-SVG-20010904/DTD/svg10.dtd">
<svg version="1.0" xmlns="http://www.w3.org/2000/svg"
 width="108.000000pt" height="108.000000pt" viewBox="0 0 108.000000 108.000000"
 preserveAspectRatio="xMidYMid meet">
<metadata>
Created by potrace 1.14, written by Peter Selinger 2001-2017
</metadata>
<g transform="translate(0.000000,108.000000) scale(0.100000,-0.100000)"
fill="#000000" stroke="none">
<path d="M433 1025 c-270 -58 -447 -343 -378 -610 78 -298 396 -456 680 -338
316 132 405 546 171 798 -120 130 -301 187 -473 150z m222 -73 c72 -21 121
-48 172 -95 100 -92 146 -198 142 -329 -3 -110 -29 -183 -95 -265 -165 -203
-486 -209 -658 -12 -125 143 -142 357 -41 514 105 164 299 240 480 187z"/>
<path d="M465 896 c-159 -39 -276 -171 -290 -328 -4 -43 -2 -50 18 -57 32 -12
43 2 50 60 16 135 130 248 264 262 52 6 63 13 63 38 0 12 -10 23 -26 29 -14 6
-26 10 -27 9 -1 0 -24 -6 -52 -13z"/>
</g>
</svg>
